<svg width="325" height="115" viewBox="0 0 325 115" fill="none" xmlns="http://www.w3.org/2000/svg">
<path d="M2.78582 80V77.6907C4.59417 77.6907 6.07261 77.5196 7.22115 77.1775C8.36969 76.811 9.15168 76.2978 9.56711 75.638C10.007 74.9537 10.2758 74.3917 10.3735 73.9518C10.4713 73.4875 10.5202 72.8766 10.5202 72.1191V34.5837C10.5202 33.142 10.2025 32.2011 9.56711 31.7613C8.95618 31.297 7.29446 31.0648 4.58195 31.0648H2.78582V28.7188H15.4687C16.3728 28.7188 16.9471 28.8044 17.1915 28.9754C17.4358 29.1221 17.7413 29.5864 18.1079 30.3683L34.3829 72.4123L50.8046 30.1484C51.049 29.4397 51.2812 29.0243 51.5011 28.9021C51.7455 28.7799 52.3442 28.7188 53.2972 28.7188H65.98V31.0648H64.1839C61.4714 31.0648 59.7975 31.297 59.1621 31.7613C58.5512 32.2011 58.2457 33.142 58.2457 34.5837V74.1351C58.2457 75.5769 58.5512 76.5299 59.1621 76.9942C59.7975 77.4585 61.4714 77.6907 64.1839 77.6907H65.98V80C64.1228 79.8534 60.5428 79.7801 55.24 79.7801C49.8882 79.7801 46.2838 79.8534 44.4266 80V77.6907H46.2593C48.9719 77.6907 50.6336 77.4708 51.2445 77.0309C51.8554 76.5666 52.1609 75.6013 52.1609 74.1351V31.0648H52.0876L33.6498 78.5704C33.3077 79.5235 32.8556 80 32.2936 80C31.6826 80 31.1817 79.4502 30.7907 78.3505L12.6828 31.6513H12.6095V72.1191C12.6095 72.8766 12.6584 73.4875 12.7561 73.9518C12.8539 74.3917 13.1105 74.9537 13.5259 75.638C13.9658 76.2978 14.76 76.811 15.9085 77.1775C17.0571 77.5196 18.5355 77.6907 20.3438 77.6907V80C15.0899 79.8534 12.1574 79.7801 11.5465 79.7801C10.96 79.7801 8.03979 79.8534 2.78582 80Z" fill="white"/>
<path d="M66.1524 62.8522C66.1524 58.6001 68.6572 55.35 73.6668 53.1018C76.6725 51.66 81.2789 50.7558 87.4859 50.3893V47.6401C87.4859 44.5366 86.6673 42.1662 85.03 40.5289C83.4172 38.8672 81.5844 38.0363 79.5317 38.0363C75.8661 38.0363 73.1536 39.1849 71.3941 41.482C72.8848 41.5308 73.8989 41.934 74.4365 42.6916C74.9742 43.4247 75.243 44.17 75.243 44.9276C75.243 45.9295 74.9253 46.7604 74.2899 47.4202C73.679 48.0555 72.8481 48.3732 71.7973 48.3732C70.7954 48.3732 69.9646 48.0677 69.3048 47.4568C68.645 46.8215 68.3151 45.9539 68.3151 44.8543C68.3151 42.4106 69.4147 40.3823 71.6141 38.7694C73.8378 37.1566 76.5259 36.3502 79.6783 36.3502C83.7837 36.3502 87.2049 37.7309 89.9419 40.4923C90.7971 41.3476 91.4325 42.325 91.8479 43.4247C92.2878 44.5244 92.5322 45.4408 92.5811 46.1739C92.6299 46.8825 92.6544 47.9456 92.6544 49.3629V64.355C92.6544 64.6483 92.7032 65.0393 92.801 65.528C92.8987 66.0168 93.1675 66.5788 93.6074 67.2142C94.0717 67.8251 94.6826 68.1306 95.4402 68.1306C97.2485 68.1306 98.1405 66.5299 98.116 63.3287V59.1133H100.022V63.3287C100.022 65.9923 99.3135 67.8495 97.8961 68.9003C96.5032 69.9267 95.1592 70.4399 93.864 70.4399C92.2023 70.4399 90.846 69.8289 89.7952 68.6071C88.7444 67.3852 88.1457 65.9434 87.9991 64.2817C87.2416 66.1878 85.9953 67.764 84.2602 69.0103C82.5496 70.2322 80.5214 70.8431 78.1754 70.8431C76.3671 70.8431 74.6076 70.6109 72.897 70.1466C71.2108 69.7068 69.6591 68.8637 68.2417 67.6174C66.8488 66.3467 66.1524 64.7583 66.1524 62.8522ZM71.944 62.7789C71.944 64.6361 72.6038 66.1634 73.9234 67.3608C75.243 68.5582 76.8314 69.1569 78.6886 69.1569C80.7902 69.1569 82.7818 68.3505 84.6634 66.7377C86.5451 65.1004 87.4859 62.6811 87.4859 59.4798V51.9655C81.9387 52.161 77.9555 53.3706 75.5362 55.5944C73.1414 57.7937 71.944 60.1885 71.944 62.7789Z" fill="white"/>
<path d="M99.6202 48.9763V47.1069C102.224 46.9961 104.384 46.0267 106.101 44.1988C107.846 42.3433 109.009 40.28 109.59 38.0089C110.2 35.7379 110.532 33.2869 110.588 30.6558H112.706V46.3175H124.878V48.9763H112.706V72.6143C112.706 78.7349 114.617 81.7953 118.439 81.7953C120.073 81.7953 121.43 80.9644 122.51 79.3027C123.59 77.6133 124.131 75.273 124.131 72.2819V67.5876H126.249V72.4481C126.249 75.5223 125.543 78.2087 124.131 80.5074C122.718 82.8061 120.613 83.9555 117.816 83.9555C116.791 83.9555 115.767 83.817 114.742 83.5401C113.745 83.2908 112.582 82.8338 111.252 82.1691C109.951 81.4768 108.884 80.2997 108.053 78.638C107.25 76.9486 106.849 74.8853 106.849 72.4481V48.9763H99.6202Z" fill="white"/>
<path d="M126.074 74V72.0206C128.357 72.0206 129.76 71.8844 130.284 71.6122C130.807 71.3189 131.069 70.4811 131.069 69.0986V35.6373C131.069 34.0454 130.787 33.0505 130.221 32.6525C129.676 32.2545 128.294 32.0555 126.074 32.0555V30.0447L135.311 29.3535V51.7239H135.374C136.065 50.1739 137.186 48.76 138.736 47.4823C140.286 46.2046 142.254 45.5657 144.642 45.5657C147.868 45.5657 150.12 46.3617 151.397 47.9536C152.34 49.0218 152.906 50.1529 153.094 51.3469C153.304 52.5408 153.408 54.6877 153.408 57.7878V70.0726C153.45 70.9733 153.817 71.5284 154.508 71.7378C155.199 71.9263 156.508 72.0206 158.435 72.0206V74C154.058 73.8743 151.649 73.8115 151.209 73.8115C150.874 73.8115 148.455 73.8743 143.951 74V72.0206C146.234 72.0206 147.638 71.8844 148.161 71.6122C148.706 71.3189 148.978 70.4811 148.978 69.0986V54.1117C148.978 51.9333 148.643 50.2053 147.973 48.9276C147.302 47.6289 146.046 46.9796 144.202 46.9796C141.982 46.9796 139.982 47.9117 138.201 49.7759C136.421 51.6401 135.531 54.1431 135.531 57.2851V69.0986C135.531 70.4811 135.793 71.3189 136.316 71.6122C136.861 71.8844 138.264 72.0206 140.526 72.0206V74C136.149 73.8743 133.75 73.8115 133.331 73.8115C132.996 73.8115 130.577 73.8743 126.074 74Z" fill="white"/>
<path d="M156.499 56.1833V53.1672H170.083V56.1833H156.499Z" fill="white"/>
<path d="M174.237 77C174.237 76.2171 174.269 75.7093 174.333 75.4765C174.417 75.2437 174.629 74.9475 174.967 74.5878L187.441 60.6858C191.991 55.5651 194.265 50.7725 194.265 46.3077C194.265 43.4088 193.503 40.9226 191.98 38.8489C190.478 36.7753 188.34 35.7384 185.569 35.7384C183.664 35.7384 181.908 36.3203 180.3 37.4841C178.692 38.6479 177.517 40.2666 176.777 42.3403C176.904 42.298 177.189 42.2768 177.634 42.2768C178.713 42.2768 179.549 42.6154 180.141 43.2925C180.755 43.9696 181.061 44.7631 181.061 45.6729C181.061 46.8367 180.681 47.7043 179.919 48.2756C179.178 48.8258 178.438 49.1008 177.697 49.1008C177.401 49.1008 177.052 49.0691 176.65 49.0056C176.269 48.9421 175.772 48.6142 175.158 48.0217C174.544 47.408 174.237 46.5617 174.237 45.4825C174.237 42.4567 175.38 39.7376 177.665 37.3254C179.972 34.9132 182.881 33.7071 186.394 33.7071C190.372 33.7071 193.662 34.892 196.265 37.2619C198.889 39.6107 200.2 42.6259 200.2 46.3077C200.2 47.5985 199.999 48.8363 199.597 50.0213C199.217 51.1851 198.762 52.2219 198.233 53.1318C197.725 54.0416 196.773 55.2266 195.376 56.6866C193.98 58.1466 192.721 59.3951 191.599 60.4319C190.478 61.4687 188.658 63.0874 186.14 65.2881L179.252 71.9851H190.964C194.773 71.9851 196.826 71.8159 197.122 71.4773C197.545 70.8637 198.021 68.9381 198.55 65.7007H200.2L198.36 77H174.237Z" fill="white"/>
<path d="M203.528 58.6646V55.4712H217.911V58.6646H203.528Z" fill="white"/>
<path d="M211.713 44.0569L213.142 27.1954H258.998L260.428 44.0569H258.558C258.363 41.8087 258.167 40.037 257.972 38.7419C257.801 37.4467 257.495 36.1882 257.055 34.9664C256.64 33.7201 256.164 32.8037 255.626 32.2172C255.113 31.6063 254.355 31.0686 253.353 30.6043C252.351 30.1156 251.203 29.8101 249.908 29.6879C248.612 29.5658 246.987 29.5047 245.032 29.5047C242.735 29.5047 241.306 29.5535 240.744 29.6513C240.133 29.7979 239.754 30.0912 239.607 30.531C239.461 30.9465 239.387 31.6063 239.387 32.5104V72.0618C239.387 73.0637 239.485 73.7724 239.681 74.1878C239.901 74.5788 240.585 74.9331 241.733 75.2508C242.882 75.5441 244.727 75.6907 247.268 75.6907H250.274V78C248.221 77.8534 243.468 77.7801 236.015 77.7801C228.611 77.7801 223.882 77.8534 221.829 78V75.6907H224.835C227.377 75.6907 229.222 75.5441 230.37 75.2508C231.543 74.9331 232.227 74.5788 232.423 74.1878C232.618 73.7724 232.716 73.0637 232.716 72.0618V32.5104C232.716 31.8018 232.692 31.3008 232.643 31.0075C232.594 30.7143 232.46 30.4455 232.24 30.2011C232.02 29.9323 231.653 29.749 231.14 29.6513C230.651 29.5535 229.307 29.5047 227.108 29.5047C225.153 29.5047 223.516 29.5658 222.196 29.6879C220.901 29.8101 219.752 30.1156 218.75 30.6043C217.748 31.0686 216.979 31.6063 216.441 32.2172C215.928 32.8037 215.451 33.7201 215.012 34.9664C214.596 36.1882 214.303 37.4467 214.132 38.7419C213.961 40.037 213.777 41.8087 213.582 44.0569H211.713Z" fill="white"/>
<path d="M258.421 71.7124C258.421 67.6363 259.73 64.1515 262.349 61.2581C264.968 58.3646 268.157 56.9179 271.917 56.9179C275.718 56.9179 278.601 58.1534 280.565 60.6245C282.55 63.0955 283.543 66.1051 283.543 69.6532C283.543 70.3079 283.459 70.6986 283.29 70.8254C283.121 70.9521 282.667 71.0154 281.927 71.0154H263.807C263.807 75.4295 264.461 78.6714 265.771 80.7411C267.587 83.6346 270.026 85.0813 273.089 85.0813C273.511 85.0813 273.976 85.039 274.483 84.9546C274.99 84.8701 275.76 84.6483 276.795 84.2893C277.83 83.9091 278.802 83.2227 279.71 82.2301C280.618 81.2375 281.336 79.9597 281.864 78.3968C281.991 77.7844 282.265 77.4887 282.688 77.5098C283.258 77.5098 283.543 77.7632 283.543 78.2701C283.543 78.6503 283.332 79.2733 282.909 80.1392C282.508 80.984 281.917 81.9133 281.135 82.9271C280.354 83.9408 279.203 84.8278 277.682 85.5882C276.183 86.3485 274.525 86.7286 272.709 86.7286C268.907 86.7286 265.57 85.2925 262.698 82.4202C259.847 79.5268 258.421 75.9575 258.421 71.7124ZM263.87 69.6532H279.266C279.266 68.7451 279.182 67.7841 279.013 66.7703C278.865 65.7566 278.559 64.5528 278.094 63.1588C277.651 61.7438 276.901 60.5928 275.845 59.7057C274.789 58.8187 273.479 58.3752 271.917 58.3752C271.22 58.3752 270.491 58.523 269.731 58.8187C268.991 59.1144 268.168 59.6213 267.26 60.3393C266.352 61.0574 265.581 62.2296 264.947 63.8558C264.313 65.482 263.954 67.4145 263.87 69.6532Z" fill="white"/>
<path d="M285.916 77V74.6907C289.826 74.6907 293.028 73.1878 295.52 70.1821C295.52 70.1821 297.866 67.2007 302.558 61.2381L295.117 51.561C293.357 49.3128 292.087 47.9932 291.305 47.6022C290.547 47.1868 288.873 46.9791 286.283 46.9791V44.6331C288.336 44.7797 290.706 44.8531 293.394 44.8531C294.885 44.8531 297.597 44.7797 301.532 44.6331V46.9791C299.772 47.0768 298.892 47.7 298.892 48.8485C298.892 49.2395 299.112 49.6916 299.552 50.2048L305.417 57.7925L310.072 51.9276C310.83 51.0234 311.209 50.1437 311.209 49.2884C311.209 47.8955 310.476 47.1257 309.009 46.9791V44.6331C310.964 44.7797 313.371 44.8531 316.231 44.8531C318.381 44.8531 320.434 44.7797 322.389 44.6331V46.9791C318.577 47.0768 315.595 48.372 313.445 50.8646C312.492 51.9154 310.195 54.7501 306.553 59.3687L316.597 72.3447C317.404 73.3955 318.259 74.0553 319.163 74.3241C320.067 74.5685 321.594 74.6907 323.745 74.6907V77C321.497 76.8534 319.09 76.7801 316.524 76.7801C315.62 76.7801 312.919 76.8534 308.423 77V74.6907C309.327 74.6418 309.999 74.4219 310.439 74.0309C310.903 73.6155 311.135 73.2 311.135 72.7846C311.135 72.5891 310.61 71.7705 309.559 70.3287L303.841 62.8143C300.029 67.3107 297.878 70.0843 297.39 71.1351C297.194 71.575 297.096 71.9782 297.096 72.3447C297.096 73.6888 297.817 74.4708 299.259 74.6907V77C295.667 76.8534 293.296 76.7801 292.148 76.7801C289.949 76.7801 287.871 76.8534 285.916 77Z" fill="white"/>
</svg>
